<svg width="900" height="450" xmlns="http://www.w3.org/2000/svg" viewBox="0 0 900 450">
  <style>
    .box { fill:#1f2937; stroke:#60a5fa; stroke-width:3; rx:12; ry:12; }
    .text { fill:#ffffff; font-family:Arial, sans-serif; font-size:18px; font-weight:600; }
    .arrow { stroke:#60a5fa; stroke-width:4; marker-end:url(#arrowhead); }
  </style>
  <defs>
    <marker id="arrowhead" markerWidth="10" markerHeight="10" refX="10" refY="5" orient="auto">
      <path d="M0,0 L10,5 L0,10 Z" fill="#60a5fa" />
    </marker>
  </defs>
  <rect x="50" y="45" width="200" height="70" class="box" />
  <text x="150" y="85" text-anchor="middle" class="text">Threat Feed</text>
  <rect x="50" y="155" width="200" height="70" class="box" />
  <text x="150" y="195" text-anchor="middle" class="text">Normalization</text>
  <rect x="50" y="265" width="200" height="70" class="box" />
  <text x="150" y="305" text-anchor="middle" class="text">Risk Scoring</text>

  <rect x="350" y="105" width="220" height="70" class="box" />
  <text x="460" y="145" text-anchor="middle" class="text">MongoDB</text>
  <rect x="650" y="105" width="220" height="70" class="box" />
  <text x="760" y="145" text-anchor="middle" class="text">Elasticsearch</text>
  <rect x="350" y="245" width="220" height="70" class="box" />
  <text x="460" y="285" text-anchor="middle" class="text">Kibana</text>
  <rect x="650" y="245" width="220" height="70" class="box" />
  <text x="760" y="285" text-anchor="middle" class="text">Firewall Enforcement</text>

  <path d="M150,115 L150,155" class="arrow" />
  <path d="M150,225 L150,265" class="arrow" />
  <path d="M250,300 L350,300" class="arrow" />
  <path d="M570,140 L650,140" class="arrow" />
  <path d="M760,175 L760,245" class="arrow" />
  <path d="M570,280 L650,280" class="arrow" />
</svg>
